<mxfile host="app.diagrams.net" modified="2022-12-05T11:29:40.426Z" agent="5.0 (Windows NT 10.0; Win64; x64) AppleWebKit/537.36 (KHTML, like Gecko) Chrome/107.0.0.0 Safari/537.36 OPR/93.0.0.0" etag="hgnDJx4s3wHG5yFyS4MC" version="20.5.1" type="github">
  <diagram id="C5RBs43oDa-KdzZeNtuy" name="Page-1">
    <mxGraphModel dx="1422" dy="764" grid="1" gridSize="11" guides="1" tooltips="1" connect="1" arrows="1" fold="1" page="1" pageScale="1" pageWidth="827" pageHeight="1169" math="0" shadow="0">
      <root>
        <mxCell id="WIyWlLk6GJQsqaUBKTNV-0" />
        <mxCell id="WIyWlLk6GJQsqaUBKTNV-1" parent="WIyWlLk6GJQsqaUBKTNV-0" />
        <mxCell id="HZOU5-4TW2ysTzip3i9l-4" value="Student" style="swimlane;fontStyle=1;align=center;verticalAlign=top;childLayout=stackLayout;horizontal=1;startSize=26;horizontalStack=0;resizeParent=1;resizeParentMax=0;resizeLast=0;collapsible=1;marginBottom=0;" vertex="1" parent="WIyWlLk6GJQsqaUBKTNV-1">
          <mxGeometry x="290" y="180" width="240" height="220" as="geometry" />
        </mxCell>
        <mxCell id="HZOU5-4TW2ysTzip3i9l-5" value="-string name&#xa;-string major&#xa;-a list of Course&#xa;-a list of Rewgrades&#xa;" style="text;strokeColor=none;fillColor=none;align=left;verticalAlign=top;spacingLeft=4;spacingRight=4;overflow=hidden;rotatable=0;points=[[0,0.5],[1,0.5]];portConstraint=eastwest;" vertex="1" parent="HZOU5-4TW2ysTzip3i9l-4">
          <mxGeometry y="26" width="240" height="94" as="geometry" />
        </mxCell>
        <mxCell id="HZOU5-4TW2ysTzip3i9l-6" value="" style="line;strokeWidth=1;fillColor=none;align=left;verticalAlign=middle;spacingTop=-1;spacingLeft=3;spacingRight=3;rotatable=0;labelPosition=right;points=[];portConstraint=eastwest;strokeColor=inherit;" vertex="1" parent="HZOU5-4TW2ysTzip3i9l-4">
          <mxGeometry y="120" width="240" height="8" as="geometry" />
        </mxCell>
        <mxCell id="HZOU5-4TW2ysTzip3i9l-7" value="+Student(string name,string major)&#xa;+void addCourse(Course,RawGrade)&#xa;+void printTranscipt()&#xa;+integer sumCredit()&#xa;+double calCredit()&#xa;" style="text;strokeColor=none;fillColor=none;align=left;verticalAlign=top;spacingLeft=4;spacingRight=4;overflow=hidden;rotatable=0;points=[[0,0.5],[1,0.5]];portConstraint=eastwest;" vertex="1" parent="HZOU5-4TW2ysTzip3i9l-4">
          <mxGeometry y="128" width="240" height="92" as="geometry" />
        </mxCell>
        <mxCell id="HZOU5-4TW2ysTzip3i9l-34" style="edgeStyle=orthogonalEdgeStyle;rounded=0;orthogonalLoop=1;jettySize=auto;html=1;exitX=0.5;exitY=0;exitDx=0;exitDy=0;entryX=0.5;entryY=1.011;entryDx=0;entryDy=0;entryPerimeter=0;strokeColor=#000000;strokeWidth=2;fontFamily=Helvetica;endArrow=diamondThin;endFill=0;" edge="1" parent="WIyWlLk6GJQsqaUBKTNV-1" source="HZOU5-4TW2ysTzip3i9l-17" target="HZOU5-4TW2ysTzip3i9l-7">
          <mxGeometry relative="1" as="geometry" />
        </mxCell>
        <mxCell id="HZOU5-4TW2ysTzip3i9l-17" value="Course" style="swimlane;fontStyle=1;align=center;verticalAlign=top;childLayout=stackLayout;horizontal=1;startSize=26;horizontalStack=0;resizeParent=1;resizeParentMax=0;resizeLast=0;collapsible=1;marginBottom=0;" vertex="1" parent="WIyWlLk6GJQsqaUBKTNV-1">
          <mxGeometry x="290" y="495" width="240" height="180" as="geometry" />
        </mxCell>
        <mxCell id="HZOU5-4TW2ysTzip3i9l-18" value="-sting name&#xa;-integer credit" style="text;strokeColor=none;fillColor=none;align=left;verticalAlign=top;spacingLeft=4;spacingRight=4;overflow=hidden;rotatable=0;points=[[0,0.5],[1,0.5]];portConstraint=eastwest;" vertex="1" parent="HZOU5-4TW2ysTzip3i9l-17">
          <mxGeometry y="26" width="240" height="54" as="geometry" />
        </mxCell>
        <mxCell id="HZOU5-4TW2ysTzip3i9l-19" value="" style="line;strokeWidth=1;fillColor=none;align=left;verticalAlign=middle;spacingTop=-1;spacingLeft=3;spacingRight=3;rotatable=0;labelPosition=right;points=[];portConstraint=eastwest;strokeColor=inherit;" vertex="1" parent="HZOU5-4TW2ysTzip3i9l-17">
          <mxGeometry y="80" width="240" height="8" as="geometry" />
        </mxCell>
        <mxCell id="HZOU5-4TW2ysTzip3i9l-20" value="+Course(string name,integer name)&#xa;+string getFinalLetterGrade(double grade)&#xa;+string getType()&#xa;+string getName()&#xa;+integer getCredit()&#xa;" style="text;strokeColor=none;fillColor=none;align=left;verticalAlign=top;spacingLeft=4;spacingRight=4;overflow=hidden;rotatable=0;points=[[0,0.5],[1,0.5]];portConstraint=eastwest;" vertex="1" parent="HZOU5-4TW2ysTzip3i9l-17">
          <mxGeometry y="88" width="240" height="92" as="geometry" />
        </mxCell>
        <mxCell id="HZOU5-4TW2ysTzip3i9l-32" style="edgeStyle=orthogonalEdgeStyle;rounded=0;orthogonalLoop=1;jettySize=auto;html=1;exitX=0.5;exitY=0;exitDx=0;exitDy=0;entryX=1;entryY=0.5;entryDx=0;entryDy=0;strokeColor=#000000;strokeWidth=1;fontFamily=Helvetica;endArrow=block;endFill=0;" edge="1" parent="WIyWlLk6GJQsqaUBKTNV-1" source="HZOU5-4TW2ysTzip3i9l-21" target="HZOU5-4TW2ysTzip3i9l-20">
          <mxGeometry relative="1" as="geometry" />
        </mxCell>
        <mxCell id="HZOU5-4TW2ysTzip3i9l-21" value="SatisfactoryCourse" style="swimlane;fontStyle=1;align=center;verticalAlign=top;childLayout=stackLayout;horizontal=1;startSize=26;horizontalStack=0;resizeParent=1;resizeParentMax=0;resizeLast=0;collapsible=1;marginBottom=0;" vertex="1" parent="WIyWlLk6GJQsqaUBKTNV-1">
          <mxGeometry x="430" y="740" width="360" height="130" as="geometry" />
        </mxCell>
        <mxCell id="HZOU5-4TW2ysTzip3i9l-22" value="-double threshold" style="text;strokeColor=none;fillColor=none;align=left;verticalAlign=top;spacingLeft=4;spacingRight=4;overflow=hidden;rotatable=0;points=[[0,0.5],[1,0.5]];portConstraint=eastwest;" vertex="1" parent="HZOU5-4TW2ysTzip3i9l-21">
          <mxGeometry y="26" width="360" height="24" as="geometry" />
        </mxCell>
        <mxCell id="HZOU5-4TW2ysTzip3i9l-23" value="" style="line;strokeWidth=1;fillColor=none;align=left;verticalAlign=middle;spacingTop=-1;spacingLeft=3;spacingRight=3;rotatable=0;labelPosition=right;points=[];portConstraint=eastwest;strokeColor=inherit;" vertex="1" parent="HZOU5-4TW2ysTzip3i9l-21">
          <mxGeometry y="50" width="360" height="8" as="geometry" />
        </mxCell>
        <mxCell id="HZOU5-4TW2ysTzip3i9l-24" value="+SatisfactoryCourse(string name,integer credit,double threshold)&#xa;+string getFinalLetterGrade(double grade)&#xa;+string getType()&#xa;+getFinalNumberGrade(double grade)" style="text;strokeColor=none;fillColor=none;align=left;verticalAlign=top;spacingLeft=4;spacingRight=4;overflow=hidden;rotatable=0;points=[[0,0.5],[1,0.5]];portConstraint=eastwest;fontStyle=0" vertex="1" parent="HZOU5-4TW2ysTzip3i9l-21">
          <mxGeometry y="58" width="360" height="72" as="geometry" />
        </mxCell>
        <mxCell id="HZOU5-4TW2ysTzip3i9l-29" style="edgeStyle=orthogonalEdgeStyle;rounded=0;orthogonalLoop=1;jettySize=auto;html=1;exitX=0.5;exitY=0;exitDx=0;exitDy=0;entryX=0;entryY=0.5;entryDx=0;entryDy=0;fontFamily=Helvetica;endArrow=block;endFill=0;strokeWidth=1;" edge="1" parent="WIyWlLk6GJQsqaUBKTNV-1" source="HZOU5-4TW2ysTzip3i9l-25" target="HZOU5-4TW2ysTzip3i9l-20">
          <mxGeometry relative="1" as="geometry" />
        </mxCell>
        <mxCell id="HZOU5-4TW2ysTzip3i9l-25" value="ScaleCourse" style="swimlane;fontStyle=1;align=center;verticalAlign=top;childLayout=stackLayout;horizontal=1;startSize=26;horizontalStack=0;resizeParent=1;resizeParentMax=0;resizeLast=0;collapsible=1;marginBottom=0;" vertex="1" parent="WIyWlLk6GJQsqaUBKTNV-1">
          <mxGeometry x="30" y="740" width="350" height="130" as="geometry" />
        </mxCell>
        <mxCell id="HZOU5-4TW2ysTzip3i9l-26" value="-List double scales&#xa;" style="text;strokeColor=none;fillColor=none;align=left;verticalAlign=top;spacingLeft=4;spacingRight=4;overflow=hidden;rotatable=0;points=[[0,0.5],[1,0.5]];portConstraint=eastwest;" vertex="1" parent="HZOU5-4TW2ysTzip3i9l-25">
          <mxGeometry y="26" width="350" height="24" as="geometry" />
        </mxCell>
        <mxCell id="HZOU5-4TW2ysTzip3i9l-27" value="" style="line;strokeWidth=1;fillColor=none;align=left;verticalAlign=middle;spacingTop=-1;spacingLeft=3;spacingRight=3;rotatable=0;labelPosition=right;points=[];portConstraint=eastwest;strokeColor=inherit;" vertex="1" parent="HZOU5-4TW2ysTzip3i9l-25">
          <mxGeometry y="50" width="350" height="8" as="geometry" />
        </mxCell>
        <mxCell id="HZOU5-4TW2ysTzip3i9l-28" value="+ScaleCourse(string name,integer credit, List double scales)&#xa;+string getFinalLetterGrade(double grade)&#xa;+string getType()&#xa;+getFinalNumberGrade(double grade)" style="text;strokeColor=none;fillColor=none;align=left;verticalAlign=top;spacingLeft=4;spacingRight=4;overflow=hidden;rotatable=0;points=[[0,0.5],[1,0.5]];portConstraint=eastwest;fontFamily=Helvetica;" vertex="1" parent="HZOU5-4TW2ysTzip3i9l-25">
          <mxGeometry y="58" width="350" height="72" as="geometry" />
        </mxCell>
      </root>
    </mxGraphModel>
  </diagram>
</mxfile>
